HIERARCHY
ROOT joint_Root
{
	OFFSET 0.0 0.0 0.0
	CHANNELS 6 Xposition Yposition Zposition Zrotation Xrotation Yrotation 
	JOINT Hips
	{
		OFFSET 4.5925 91.4895 -427.239
		CHANNELS 6 Xposition Yposition Zposition Zrotation Xrotation Yrotation 
		JOINT Spine
		{
			OFFSET 15.7357 0.0 0.0
			CHANNELS 6 Xposition Yposition Zposition Zrotation Xrotation Yrotation 
			JOINT Chest
			{
				OFFSET 8.98455 -0.406207 0.0
				CHANNELS 6 Xposition Yposition Zposition Zrotation Xrotation Yrotation 
				JOINT Neck
				{
					OFFSET 16.3773 0.0 0.0
					CHANNELS 6 Xposition Yposition Zposition Zrotation Xrotation Yrotation 
					JOINT Head
					{
						OFFSET 6.45672 0.0 0.0
						CHANNELS 6 Xposition Yposition Zposition Zrotation Xrotation Yrotation 
						End Site
						{
							OFFSET 0.0 0.0 0.0
						}
					}
				}
				JOINT Shoulder_L
				{
					OFFSET 12.9942 -0.242716 4.98039
					CHANNELS 6 Xposition Yposition Zposition Zrotation Xrotation Yrotation 
					JOINT UpperArm_L
					{
						OFFSET 5.34809 0.0 0.0
						CHANNELS 6 Xposition Yposition Zposition Zrotation Xrotation Yrotation 
						JOINT LowerArm_L
						{
							OFFSET 24.3286 1.87007e-05 0.0
							CHANNELS 6 Xposition Yposition Zposition Zrotation Xrotation Yrotation 
							JOINT Hand_L
							{
								OFFSET 22.2916 0.0 0.0
								CHANNELS 6 Xposition Yposition Zposition Zrotation Xrotation Yrotation 
								End Site
								{
									OFFSET 0.0 0.0 0.0
								}
							}
						}
					}
				}
				JOINT Shoulder_R
				{
					OFFSET 12.9945 -0.242716 -4.98039
					CHANNELS 6 Xposition Yposition Zposition Zrotation Xrotation Yrotation 
					JOINT UpperArm_R
					{
						OFFSET -5.34813 0.0 0.0
						CHANNELS 6 Xposition Yposition Zposition Zrotation Xrotation Yrotation 
						JOINT LowerArm_R
						{
							OFFSET -24.3289 0.000322201 0.0
							CHANNELS 6 Xposition Yposition Zposition Zrotation Xrotation Yrotation 
							JOINT Hand_R
							{
								OFFSET -22.2915 -0.000108084 0.0
								CHANNELS 6 Xposition Yposition Zposition Zrotation Xrotation Yrotation 
								End Site
								{
									OFFSET 0.0 0.0 0.0
								}
							}
						}
					}
				}
			}
		}
		JOINT UpperLeg_L
		{
			OFFSET -2.19248 -6.46944 0.0
			CHANNELS 6 Xposition Yposition Zposition Zrotation Xrotation Yrotation 
			JOINT LowerLeg_L
			{
				OFFSET 39.0811 0.0 -1.23785e-05
				CHANNELS 6 Xposition Yposition Zposition Zrotation Xrotation Yrotation 
				JOINT Foot_L
				{
					OFFSET 40.9854 0.0 -1.26872e-05
					CHANNELS 6 Xposition Yposition Zposition Zrotation Xrotation Yrotation 
					JOINT Toes_L
					{
						OFFSET 11.7543 0.0 0.0
						CHANNELS 6 Xposition Yposition Zposition Zrotation Xrotation Yrotation 
						End Site
						{
							OFFSET 0.0 0.0 0.0
						}
					}
				}
			}
		}
		JOINT UpperLeg_R
		{
			OFFSET -2.19251 6.46944 0.0
			CHANNELS 6 Xposition Yposition Zposition Zrotation Xrotation Yrotation 
			JOINT LowerLeg_R
			{
				OFFSET -39.0811 -0.00228153 -0.0401928
				CHANNELS 6 Xposition Yposition Zposition Zrotation Xrotation Yrotation 
				JOINT Foot_R
				{
					OFFSET -40.9854 0.0 0.0
					CHANNELS 6 Xposition Yposition Zposition Zrotation Xrotation Yrotation 
					JOINT Toes_R
					{
						OFFSET -11.7543 0.0 0.0
						CHANNELS 6 Xposition Yposition Zposition Zrotation Xrotation Yrotation 
						End Site
						{
							OFFSET 0.0 0.0 0.0
						}
					}
				}
			}
		}
	}
}
MOTION
Frames:	8
Frame Time:	0.0333333
0.000000 0.000000 0.000000 0.000000 0.000000 -0.000000 134.129000 85.032100 138.906000 96.079900 -11.594800 10.279600 15.735700 0.000005 -0.000001 70.711100 82.754700 -69.405800 8.984550 -0.406207 -0.000000 5.983400 -4.794370 2.859530 16.377300 -0.000001 -0.000001 0.235900 -14.169000 4.603690 6.456720 -0.000001 -0.000000 -4.788650 -16.616300 11.092800 12.994200 -0.242716 4.980390 -90.610700 2.173110 -74.298600 5.348090 -0.000007 -0.000001 -57.674300 24.005900 -29.071900 24.328600 0.000019 0.000005 9.973160 7.886230 -52.035700 22.291600 -0.000001 0.000005 24.399000 5.316350 -0.391353 12.994500 -0.242716 -4.980390 86.988000 11.552000 -75.278300 -5.348130 -0.000001 -0.000004 -60.704100 16.177100 5.653590 -24.328900 0.000322 -0.000009 0.893375 8.771270 -5.846700 -22.291500 -0.000108 -0.000004 12.568900 5.233320 1.870530 -2.192480 -6.469440 -0.000000 -171.234000 -2.144170 -9.715910 39.081100 -0.000007 -0.000012 -0.014242 0.003575 75.936800 40.985400 -0.000006 -0.000013 0.746316 -1.460510 -46.319400 11.754300 -0.000000 0.000003 -0.008283 -0.090335 -20.255600 -2.192510 6.469440 -0.000001 -173.191000 17.748100 167.728000 -39.081100 -0.002282 -0.040193 0.139747 -0.120562 48.546800 -40.985400 0.000008 0.000006 20.648200 -8.957240 -77.464900 -11.754300 -0.000006 -0.000006 -0.564180 -0.690209 -18.942500
0.000000 0.000000 0.000000 0.000000 0.000000 -0.000000 132.532000 86.207500 141.662000 97.210400 -18.409500 10.585600 15.735700 0.000005 -0.000001 76.075100 83.055800 -75.022200 8.984550 -0.406207 -0.000000 5.753630 -3.352410 2.272420 16.377300 -0.000001 -0.000001 0.567501 -13.665500 4.896950 6.456720 -0.000001 -0.000000 -4.403420 -16.679500 11.304600 12.994200 -0.242716 4.980390 -90.601900 2.036790 -73.532600 5.348090 -0.000007 -0.000001 -58.220100 27.352400 -23.953100 24.328600 0.000019 0.000005 10.390200 8.954280 -49.673700 22.291600 -0.000001 0.000005 21.433900 5.323680 -0.603046 12.994500 -0.242716 -4.980390 87.180000 11.360700 -75.960700 -5.348130 -0.000001 -0.000004 -60.524600 15.176800 0.618364 -24.328900 0.000322 -0.000009 0.857544 5.853570 -8.362200 -22.291500 -0.000108 -0.000004 14.697300 5.262900 1.090670 -2.192480 -6.469440 -0.000000 -173.955000 -3.222250 -12.203700 39.081100 -0.000007 -0.000012 -0.058449 0.015713 74.959300 40.985400 -0.000006 -0.000013 3.096820 -6.015540 -49.435700 11.754300 -0.000000 0.000003 -0.007089 -0.080432 -19.851200 -2.192510 6.469440 -0.000001 -174.549000 15.264100 172.648000 -39.081100 -0.002282 -0.040193 0.120717 -0.120549 44.254300 -40.985400 0.000008 0.000006 21.803700 -4.356820 -77.118500 -11.754300 -0.000006 -0.000006 -1.341850 -1.569480 -19.934400
0.000000 0.000000 0.000000 0.000000 0.000000 -0.000000 130.881000 87.594500 144.125000 98.427900 -26.194500 10.238200 15.735700 0.000005 -0.000001 82.013000 83.586600 -81.261000 8.984550 -0.406207 -0.000000 4.950590 -1.797200 1.580240 16.377300 -0.000001 -0.000001 0.788906 -12.811900 5.263470 6.456720 -0.000001 -0.000000 -4.074920 -16.648400 10.799700 12.994200 -0.242716 4.980390 -90.614200 1.948470 -72.501300 5.348090 -0.000007 -0.000001 -59.004100 31.345600 -18.743200 24.328600 0.000019 0.000005 11.958300 11.963300 -45.618800 22.291600 -0.000001 0.000005 16.478700 5.329890 -0.783459 12.994500 -0.242716 -4.980390 87.586400 10.887000 -77.419900 -5.348130 -0.000001 -0.000004 -62.016600 15.307600 -4.002480 -24.328900 0.000322 -0.000009 0.626183 2.885600 -12.279200 -22.291500 -0.000108 -0.000004 15.371900 5.298230 0.121964 -2.192480 -6.469440 -0.000000 -176.304000 -3.726040 -14.784000 39.081100 -0.000007 -0.000012 -0.057777 0.020356 70.597100 40.985400 -0.000006 -0.000013 4.249760 -7.808210 -53.229900 11.754300 -0.000000 0.000003 -0.007830 -0.086646 -20.104900 -2.192510 6.469440 -0.000001 -175.757000 12.290500 176.158000 -39.081100 -0.002282 -0.040193 0.102061 -0.118731 39.759800 -40.985400 0.000008 0.000006 23.158600 0.970581 -74.908700 -11.754300 -0.000006 -0.000006 -2.040580 -2.267700 -21.993600
0.000000 0.000000 0.000000 0.000000 0.000000 -0.000000 129.265000 88.886600 146.393000 99.534300 -34.247600 9.726070 15.735700 0.000005 -0.000001 89.423500 84.086600 -88.848000 8.984550 -0.406207 -0.000000 4.061210 -0.137418 1.154560 16.377300 -0.000001 -0.000001 0.603227 -12.086100 5.382300 6.456720 -0.000001 -0.000000 -4.023060 -16.672200 10.249100 12.994200 -0.242716 4.980390 -90.701000 2.124320 -71.733900 5.348090 -0.000007 -0.000001 -60.870300 35.796100 -13.426400 24.328600 0.000019 0.000005 12.717600 15.603700 -39.999400 22.291600 -0.000001 0.000005 11.290200 5.341910 -1.137690 12.994500 -0.242716 -4.980390 88.045400 10.135600 -79.025100 -5.348130 -0.000001 -0.000004 -63.787500 17.742500 -8.244130 -24.328900 0.000322 -0.000009 0.045454 0.150003 -17.458300 -22.291500 -0.000108 -0.000004 14.308300 5.329800 -0.781620 -2.192480 -6.469440 -0.000000 -177.749000 -2.954610 -16.928300 39.081100 -0.000007 -0.000012 -0.029125 0.014576 63.422200 40.985400 -0.000006 -0.000013 4.356290 -8.644180 -57.358700 11.754300 -0.000000 0.000003 -0.007018 -0.079828 -19.826600 -2.192510 6.469440 -0.000001 -176.689000 8.417590 178.589000 -39.081100 -0.002282 -0.040193 0.075691 -0.099333 36.087800 -40.985400 0.000008 0.000006 24.021300 5.822560 -72.972800 -11.754300 -0.000006 -0.000006 -0.017954 -0.155681 -22.930000
0.000000 0.000000 0.000000 0.000000 0.000000 -0.000000 127.673000 89.849300 148.672000 100.566000 -42.276400 9.343380 15.735700 0.000005 -0.000001 98.316200 84.371100 -97.921800 8.984550 -0.406207 -0.000000 3.369120 1.611260 0.740612 16.377300 -0.000001 -0.000001 0.075470 -11.650300 5.505980 6.456720 -0.000001 -0.000000 -4.206390 -16.609400 10.007400 12.994200 -0.242716 4.980390 -90.672800 2.022380 -71.595800 5.348090 -0.000007 -0.000001 -64.528200 39.794300 -7.870690 24.328600 0.000019 0.000005 12.228100 19.284600 -33.275200 22.291600 -0.000001 0.000005 6.465860 5.352930 -1.466680 12.994500 -0.242716 -4.980390 88.386200 9.515800 -80.328700 -5.348130 -0.000001 -0.000004 -64.679100 22.561500 -12.444100 -24.328900 0.000322 -0.000009 -0.407217 -0.918081 -23.869800 -22.291500 -0.000108 -0.000004 13.373900 5.360280 -1.689010 -2.192480 -6.469440 -0.000000 -178.058000 -1.169110 -18.211900 39.081100 -0.000007 -0.000012 0.006066 -0.004401 54.015200 40.985400 -0.000006 -0.000013 4.123330 -9.246650 -59.888600 11.754300 -0.000000 0.000003 -0.006065 -0.071431 -19.484000 -2.192510 6.469440 -0.000001 -177.399000 3.774440 -179.495000 -39.081100 -0.002282 -0.040193 0.060367 -0.087584 33.089100 -40.985400 0.000008 0.000006 24.689600 9.542190 -71.147700 -11.754300 -0.000006 -0.000006 -0.030024 -0.217574 -25.486600
0.000000 0.000000 0.000000 0.000000 0.000000 -0.000000 126.063000 90.370200 151.069000 101.582000 -49.611400 9.017250 15.735700 0.000005 -0.000001 104.696000 84.588400 -104.385000 8.984550 -0.406207 -0.000000 2.698600 2.729550 0.557473 16.377300 -0.000001 -0.000001 -0.678171 -11.076400 5.513790 6.456720 -0.000001 -0.000000 -4.686850 -16.260000 9.574680 12.994200 -0.242716 4.980390 -90.692100 2.077050 -71.567700 5.348090 -0.000007 -0.000001 -70.143100 41.998100 -1.438840 24.328600 0.000019 0.000005 11.522800 23.854300 -26.755500 22.291600 -0.000001 0.000005 1.848790 5.353440 -1.479500 12.994500 -0.242716 -4.980390 88.737700 8.626890 -81.643200 -5.348130 -0.000001 -0.000004 -64.610500 27.974100 -16.547800 -24.328900 0.000322 -0.000009 0.339441 0.554229 -31.489400 -22.291500 -0.000108 -0.000004 13.532400 5.383190 -2.398050 -2.192480 -6.469440 -0.000000 -177.294000 0.356851 -19.214900 39.081100 -0.000007 -0.000012 0.026708 -0.027752 43.898700 40.985400 -0.000006 -0.000013 2.910820 -8.540530 -60.931400 11.754300 -0.000000 0.000003 -0.006029 -0.071110 -19.470900 -2.192510 6.469440 -0.000001 -178.233000 -0.683150 -178.007000 -39.081100 -0.002282 -0.040193 0.046036 -0.071623 30.823700 -40.985400 0.000008 0.000006 25.154300 12.641400 -70.198400 -11.754300 -0.000006 -0.000006 -0.040287 -0.261252 -27.305600
0.000000 0.000000 0.000000 0.000000 0.000000 -0.000000 124.386000 90.354500 153.580000 102.414000 -55.836200 8.841350 15.735700 0.000005 -0.000001 108.493000 84.718000 -108.224000 8.984550 -0.406207 -0.000000 2.248370 3.335410 0.472579 16.377300 -0.000001 -0.000001 -1.551570 -10.630000 5.419760 6.456720 -0.000001 -0.000000 -5.308230 -15.856600 9.387210 12.994200 -0.242716 4.980390 -90.653000 1.998570 -71.902300 5.348090 -0.000007 -0.000001 -76.473700 41.281700 4.740050 24.328600 0.000019 0.000005 10.283600 28.674000 -20.714900 22.291600 -0.000001 0.000005 -1.824020 5.333580 -0.887796 12.994500 -0.242716 -4.980390 88.956500 7.904110 -82.454800 -5.348130 -0.000001 -0.000004 -63.347700 33.102500 -20.911400 -24.328900 0.000322 -0.000009 1.981750 2.391380 -39.664900 -22.291500 -0.000108 -0.000004 14.771400 5.400470 -2.952080 -2.192480 -6.469440 -0.000000 -176.133000 1.805490 -20.401800 39.081100 -0.000007 -0.000012 0.031194 -0.043990 35.340100 40.985400 -0.000006 -0.000013 2.577380 -6.370700 -62.855900 11.754300 -0.000000 0.000003 -0.006115 -0.071886 -19.502500 -2.192510 6.469440 -0.000001 -179.181000 -4.311020 -176.770000 -39.081100 -0.002282 -0.040193 0.038395 -0.061646 29.650900 -40.985400 0.000008 0.000006 25.802000 14.930200 -70.653200 -11.754300 -0.000006 -0.000006 -0.050272 -0.298730 -28.878000
0.000000 0.000000 0.000000 0.000000 0.000000 -0.000000 122.524000 89.829500 156.291000 103.323000 -60.441400 9.233130 15.735700 0.000005 -0.000001 108.607000 84.713200 -108.418000 8.984550 -0.406207 -0.000000 2.253010 3.362140 0.311276 16.377300 -0.000001 -0.000001 -2.426380 -10.452200 5.292560 6.456720 -0.000001 -0.000000 -6.219480 -15.640800 9.472740 12.994200 -0.242716 4.980390 -90.556100 1.766630 -72.524000 5.348090 -0.000007 -0.000001 -81.626800 38.119600 8.870860 24.328600 0.000019 0.000005 7.642030 31.757700 -14.302300 22.291600 -0.000001 0.000005 -3.313180 5.292680 0.277062 12.994500 -0.242716 -4.980390 89.055900 7.497060 -82.801800 -5.348130 -0.000001 -0.000004 -61.592200 36.513500 -24.871200 -24.328900 0.000322 -0.000009 4.196690 3.760080 -48.212300 -22.291500 -0.000108 -0.000004 15.614500 5.419330 -3.575730 -2.192480 -6.469440 -0.000000 -176.015000 1.399820 -22.131800 39.081100 -0.000007 -0.000012 0.025723 -0.044497 30.030400 40.985400 -0.000006 -0.000013 2.700290 -2.855850 -64.858500 11.754300 -0.000000 0.000003 -0.006228 -0.072905 -19.544100 -2.192510 6.469440 -0.000001 179.602000 -6.608220 -175.479000 -39.081100 -0.002282 -0.040193 0.036617 -0.058385 29.708800 -40.985400 0.000008 0.000006 26.440400 16.530000 -72.035300 -11.754300 -0.000006 -0.000006 -0.061665 -0.337149 -30.502600
